<svg xmlns="http://www.w3.org/2000/svg" viewBox="0 0 800 420" width="800" height="420">
  <defs>
    <filter id="blog19-en-glow" x="-30%" y="-30%" width="160%" height="160%">
      <feGaussianBlur stdDeviation="2.5" result="b"/>
      <feMerge><feMergeNode in="b"/><feMergeNode in="SourceGraphic"/></feMerge>
    </filter>
    <pattern id="blog19-en-grid" width="40" height="40" patternUnits="userSpaceOnUse">
      <path d="M40 0H0V40" fill="none" stroke="#1f1d1b" stroke-width="1"/>
    </pattern>
  </defs>
  <rect width="800" height="420" fill="#161412"/>
  <rect width="800" height="420" fill="url(#blog19-en-grid)" opacity="0.45"/>

  <text x="400" y="46" text-anchor="middle" fill="#8b8178" font-family="system-ui,-apple-system,sans-serif" font-size="13" letter-spacing="0.2em">FABRIC &amp; DRAPE ANALYSIS</text>
  <text x="400" y="86" text-anchor="middle" fill="#e0dcd8" font-family="system-ui,-apple-system,sans-serif" font-size="22" font-weight="700">Fabric &amp; Drape by Body Type</text>

  <g transform="translate(72,118)">
    <rect x="0" y="0" width="300" height="170" rx="8" fill="none" stroke="#2a2724" stroke-width="1.2" stroke-dasharray="6,5"/>
    <rect x="0" y="0" width="300" height="170" rx="8" fill="none" stroke="#d4a84b" stroke-width="1.5" opacity="0.35"/>
    <line x1="40" y1="40" x2="260" y2="40" stroke="#d4a84b" stroke-width="1" opacity="0.5"/>
    <line x1="40" y1="85" x2="260" y2="85" stroke="#d4a84b" stroke-width="1" opacity="0.5"/>
    <line x1="40" y1="130" x2="260" y2="130" stroke="#d4a84b" stroke-width="1" opacity="0.5"/>
    <text x="150" y="205" text-anchor="middle" fill="#8b8178" font-family="system-ui,-apple-system,sans-serif" font-size="12">STRUCTURED FABRIC</text>
  </g>

  <g transform="translate(410,118)">
    <path d="M0 45 C60 140 120 20 180 70 C240 120 300 40 318 95 L318 170 L0 170 Z" fill="rgba(212,168,75,0.12)" stroke="#d4a84b" stroke-width="1.5" filter="url(#blog19-en-glow)"/>
    <path d="M0 55 C70 150 130 30 190 78 C250 115 290 55 318 100" fill="none" stroke="#d4a84b" stroke-width="2.8" stroke-linecap="round"/>
    <text x="159" y="205" text-anchor="middle" fill="#8b8178" font-family="system-ui,-apple-system,sans-serif" font-size="12">DRAPING FABRIC</text>
  </g>

  <line x1="100" y1="378" x2="700" y2="378" stroke="#2a2724" stroke-width="1"/>
  <text x="400" y="402" text-anchor="middle" fill="#5b5148" font-family="system-ui,-apple-system,sans-serif" font-size="11">FITME · perfectfitme.com · Body proportion guides</text>
</svg>
